<?xml version="1.0" encoding="UTF-8"?>
<svg width="1200pt" height="1200pt" version="1.1" viewBox="0 0 1200 1200" xmlns="http://www.w3.org/2000/svg">
 <path d="m600 120c-198.82 0-360 161.18-360 360v600h720v-600c0-198.82-161.18-360-360-360zm106.38 473.53c-1.9375 19.004-10.492 36.367-22.887 46.441-7.4062 6.0195-15.664 9.1445-24.07 9.1445-1.1836 0-2.3594-0.0625-3.543-0.1875-24.469-2.5469-41.625-31.539-38.25-64.621 1.9414-19.004 10.492-36.367 22.891-46.441 8.4492-6.8672 18.027-9.9727 27.613-8.957 24.465 2.543 41.621 31.535 38.246 64.621zm-106.38-369.3c45.812 0 82.949 37.137 82.949 82.949s-37.137 82.949-82.949 82.949-82.949-37.137-82.949-82.949 37.137-82.949 82.949-82.949zm-68.125 304.68c9.6367-1.0156 19.172 2.0938 27.613 8.957 12.395 10.07 20.949 27.434 22.887 46.441 3.375 33.082-13.777 62.074-38.25 64.621-1.1836 0.125-2.3633 0.1875-3.543 0.1875-8.4062 0-16.664-3.125-24.07-9.1406-12.391-10.074-20.949-27.434-22.891-46.445-3.3711-33.082 13.789-62.074 38.254-64.621zm-85.453 183.63c-3.9844 0-8.1094-0.66406-12.289-1.9922-14.461-4.6016-28.023-16.992-36.289-33.145-14.414-28.191-9.1758-59.996 11.68-70.895 8.2578-4.3203 17.871-4.9297 27.801-1.7695 14.457 4.5977 28.023 16.992 36.293 33.145 14.41 28.188 9.1719 59.992-11.684 70.898-4.7812 2.5039-10.016 3.7578-15.512 3.7578zm287.71 128.12c-5.207 23.582-22.047 42.18-46.211 51.023-6.9141 2.5352-14.098 3.7656-21.25 3.7656-17.641 0-35.105-7.4766-47.973-21.309-4.8867-5.25-11.527-8.1406-18.699-8.1406-7.1758 0-13.816 2.8906-18.699 8.1406-18.082 19.445-45.262 26.316-69.219 17.543-24.164-8.8438-41.004-27.441-46.211-51.023-5.0703-22.973 1.8281-46.605 18.449-63.223l52.449-58.926c16.051-18.02 39.094-28.355 63.234-28.355 24.137 0 47.184 10.336 63.234 28.355l52.633 59.117c16.434 16.426 23.332 40.059 18.262 63.031zm68.02-163.27c-8.2617 16.152-21.828 28.543-36.289 33.145-4.1797 1.3281-8.3008 1.9922-12.289 1.9922-5.4961 0-10.73-1.2539-15.512-3.7578-20.855-10.906-26.094-42.711-11.684-70.898 8.2656-16.152 21.836-28.551 36.293-33.145 9.9297-3.1602 19.543-2.5508 27.801 1.7695 20.855 10.902 26.098 42.707 11.68 70.895z" fill="#ff001b"/>
</svg>
