<?xml version="1.0" encoding="UTF-8"?>
<svg width="3600pt" height="3600pt" version="1.1" viewBox="0 0 3600 3600" xmlns="http://www.w3.org/2000/svg">
 <path d="m1800 360c-596.47 0-1080 483.53-1080 1080v1800h2160v-1800c0-596.46-483.53-1080-1080-1080zm319.13 1420.6c-5.8164 57.016-31.477 109.11-68.664 139.32-22.223 18.062-46.996 27.434-72.211 27.434-3.5469 0-7.0781-0.1875-10.629-0.5625-73.406-7.6406-124.88-94.617-114.75-193.87 5.8203-57.016 31.477-109.11 68.668-139.32 25.352-20.598 54.086-29.918 82.836-26.871 73.41 7.6367 124.88 94.617 114.75 193.87zm-319.13-1107.9c137.43 0 248.85 111.41 248.85 248.85 0 137.43-111.41 248.84-248.85 248.84s-248.85-111.41-248.85-248.84c0-137.44 111.41-248.85 248.85-248.85zm-204.38 914.04c28.91-3.0469 57.516 6.2852 82.84 26.871 37.188 30.215 62.848 82.305 68.664 139.32 10.129 99.25-41.336 186.23-114.75 193.87-3.5469 0.375-7.0938 0.5625-10.625 0.5625-25.219 0-49.992-9.375-72.215-27.418-37.172-30.227-62.848-82.305-68.676-139.34-10.117-99.25 41.363-186.23 114.76-193.87zm-256.36 550.88c-11.957 0-24.332-1.9883-36.867-5.9766-43.379-13.805-84.074-50.973-108.86-99.438-43.246-84.574-27.527-179.98 35.039-212.68 24.773-12.961 53.617-14.785 83.402-5.3047 43.367 13.789 84.074 50.973 108.88 99.438 43.234 84.562 27.516 179.97-35.051 212.7-14.344 7.5117-30.051 11.27-46.535 11.27zm863.13 384.38c-15.625 70.742-66.141 126.54-138.63 153.07-20.746 7.6016-42.293 11.293-63.75 11.293-52.918 0-105.31-22.426-143.91-63.922-14.656-15.75-34.582-24.426-56.102-24.426-21.523 0-41.445 8.6758-56.102 24.426-54.25 58.336-135.79 78.949-207.66 52.625-72.492-26.535-123.01-82.328-138.63-153.07-15.207-68.914 5.4805-139.82 55.352-189.66l157.35-176.77c48.152-54.062 117.29-85.07 189.7-85.07s141.55 31.004 189.7 85.07l157.9 177.35c49.316 49.273 70.008 120.18 54.797 189.09zm204.07-489.79c-24.789 48.461-65.48 85.633-108.86 99.438-12.535 3.9883-24.906 5.9766-36.867 5.9766-16.484 0-32.191-3.7578-46.539-11.27-62.566-32.723-78.285-128.13-35.051-212.7 24.801-48.461 65.508-85.648 108.88-99.438 29.785-9.4805 58.629-7.6562 83.402 5.3047 62.57 32.699 78.289 128.11 35.043 212.68z" fill="#ff001b"/>
</svg>
