<?xml version="1.0" encoding="UTF-8"?>
<svg width="1200pt" height="1200pt" version="1.1" viewBox="0 0 1200 1200" xmlns="http://www.w3.org/2000/svg">
 <g fill="#ff001b">
  <path d="m797.19 253.54c-59.246-30.879-126.61-48.348-198.02-48.348-70.848 0-137.7 17.199-196.62 47.613-112.46-80.703-231.79-116.35-231.79-116.35s-0.76953 489.29-0.76953 497.91c0 237.02 192.16 429.18 429.18 429.18 236.48 0 428.24-191.25 429.14-427.5l1.7109-499.59c0-0.003907-120.07 35.84-232.83 117.08zm-197.66 379.62 55.727 119.03-27.629 0.003906-28.098 32.121-28.098-32.121h-27.66zm-405.74-460.12c114.77 42.281 133.21 86.07 133.21 86.07l-133.21 86.105zm63.371 475.75c0-48.988 10.496-95.527 29.305-137.5 93.078 31.184 223.84 100.75 223.84 245.47h-235.45c-11.469-33.898-17.703-70.176-17.703-107.96zm307.2 351.49c-127.38 0-236.72-77.32-283.59-187.6 100.59 100.42 238.02 163.93 390.28 168.62-33.23 12.273-69.172 18.98-106.69 18.98zm357.42-241.85h-235.44c0-144.71 130.77-214.29 223.84-245.47 18.809 41.98 29.305 88.516 29.305 137.5-0.003906 37.789-6.2383 74.066-17.707 107.96zm84.293-413.21-133.18-86.105s18.406-43.789 133.18-86.07z"/>
  <path d="m765.23 681.98c0 28.836 23.402 52.207 52.207 52.207 28.836 0 52.207-23.371 52.207-52.207v-52.207h-52.207c-28.805 0-52.207 23.371-52.207 52.207zm72.32 0c0 11.133-8.9844 20.117-20.117 20.117-11.098 0-20.117-8.9844-20.117-20.117 0-11.098 9.0195-20.117 20.117-20.117 11.133 0 20.117 9.0195 20.117 20.117z"/>
  <path d="m379.21 628.1h-52.207v52.207c0 28.836 23.371 52.207 52.207 52.207 28.801 0 52.207-23.371 52.207-52.207-0.003907-28.836-23.406-52.207-52.207-52.207zm0 72.324c-11.133 0-20.117-8.9844-20.117-20.117 0-11.098 8.9844-20.117 20.117-20.117 11.098 0 20.117 9.0195 20.117 20.117 0 11.129-9.0195 20.117-20.117 20.117z"/>
 </g>
</svg>
